<?xml version="1.0" encoding="utf-8"?>
<!-- Generator: Adobe Illustrator 22.1.0, SVG Export Plug-In . SVG Version: 6.00 Build 0)  -->
<svg version="1.1" xmlns="http://www.w3.org/2000/svg" xmlns:xlink="http://www.w3.org/1999/xlink" x="0px" y="0px"
	 viewBox="0 0 700 700" style="enable-background:new 0 0 700 700;" xml:space="preserve">
<style type="text/css">
	.st0{fill:#726658;}
	.st1{fill:#86BCB3;}
	.st2{fill:#6D6E71;}
	.st3{fill:none;stroke:#9E5E26;stroke-width:10;stroke-miterlimit:10;}
	.st4{fill:#B7E1DD;}
	.st5{fill:#DCF0EF;}
	.st6{fill:#D1D3D4;}
	.st7{fill:none;stroke:#FFFFFF;stroke-width:8;stroke-miterlimit:10;}
	.st8{fill:none;stroke:#FFFFFF;stroke-width:8;stroke-miterlimit:10;stroke-dasharray:20.1856,20.1856;}
	.st9{fill:#9FD8D0;}
	.st10{fill:#93CFC5;}
	.st11{fill:#9E5E26;}
	.st12{fill:#73AA42;}
	.st13{fill:#669940;}
	.st14{fill:#7EBC42;}
</style>
<rect id="Ground" x="-0.9" y="417.6" class="st0" width="701.7" height="282.5"/>
<g id="Building">
	<rect x="-0.9" y="205.8" class="st1" width="180.2" height="307.7"/>
	<rect x="519.8" y="205.8" class="st1" width="180.2" height="307.7"/>
</g>
<polygon id="Street" class="st2" points="700.9,700.1 -0.9,700.1 279.1,417.6 420.9,417.6 "/>
<line class="st3" x1="149.6" y1="312.5" x2="149.6" y2="543"/>
<polyline class="st3" points="107.6,332.5 149.6,464 204.9,369 "/>
<line class="st3" x1="544.5" y1="312.5" x2="544.5" y2="543"/>
<polyline class="st3" points="502.5,332.5 544.5,464 599.9,369 "/>
<g id="TreeCircle">
	<circle class="st13" cx="179.3" cy="324.8" r="100.7"/>
	<circle class="st14" cx="126.6" cy="295.4" r="100.7"/>
	<circle class="st12" cx="126.6" cy="327.9" r="100.7"/>
	<circle class="st13" cx="563.4" cy="327.9" r="100.7"/>
	<circle class="st14" cx="521.6" cy="295.4" r="100.7"/>
	<circle class="st12" cx="513.3" cy="317.1" r="100.7"/>
</g>
<g>
	<g>
		<line class="st7" x1="349.1" y1="417.6" x2="349.1" y2="427.6"/>
		<line class="st8" x1="349.1" y1="447.8" x2="349.1" y2="679.9"/>
		<line class="st7" x1="349.1" y1="690" x2="349.1" y2="700"/>
	</g>
</g>
</svg>
